# xmcd CD database file
#
# Track frame offsets:
#	150
#	22095
#	44524
#	65700
#	84974
#	106898
#	147004
#	177688
#	200869
#	216825
#	231351
#	268041
#	293570
#
# Disc length: 4250 seconds
#
# Revision: 0
# Processed by: cddbd v1.5.2PL0 Copyright (c) Steve Scherf et al.
# Submitted via: CDex 1.70beta2
#
DISCID=cb10980d
DTITLE=KLAUS DOLDINGER - Shakin' The Blues
DYEAR=1965
DGENRE=Blues
TTITLE0=Bluesy Toosy
TTITLE1=Shakin' The Blues
TTITLE2=Stars Fell On Alabama
TTITLE3=Just A Little Bit Of Soul
TTITLE4=Watch It
TTITLE5=Careless Love
TTITLE6=Blues For George
TTITLE7=Delilah
TTITLE8=Joe's Blues
TTITLE9=I Didn't Know What Time It Was
TTITLE10=Waltz Of The Jive Cats
TTITLE11=Smoke Gets In Your Eyes
TTITLE12=That Bluesy Sound
EXTD=YEAR: 1965
EXTT0=
EXTT1=
EXTT2=
EXTT3=
EXTT4=
EXTT5=
EXTT6=
EXTT7=
EXTT8=
EXTT9=
EXTT10=
EXTT11=
EXTT12=
PLAYORDER=
